# xmcd
#
# Track frame offsets:
#	150
#	19932
#	36530
#	67600
#	86127
#	104680
#	123330
#	137110
#	159752
#	183187
#	197507
#	216580
#	230725
#	244125
#	269717
#
# Disc length: 3905
#
# Revision: 2
# Processed by: cddbd v1.5.1PL0 Copyright (c) Steve Scherf et al.
# Submitted via: audiograbber 1.80.04
# Normalized: r1:DSETVAR1
#
DISCID=dd0f3f0f
DTITLE=Various Artist - Blues Story #18
DYEAR=1998
DGENRE=Blues
TTITLE0=Robert Cray - Consequences
TTITLE1=Lucky Peterson - You're The one For Me
TTITLE2=Joe Louis Walker - Low Down Dirty Blues
TTITLE3=Sherman Robertson - Special Kind Of Loving
TTITLE4=Micahel Hill's Blues Mob - Bluestime In America
TTITLE5=Kenny Neal - Don't Fix Our Love
TTITLE6=Tinsley Ellis - Break My Rule
TTITLE7=Eric Bibb - Sing Your Song
TTITLE8=Popa Chubby - Real Thing
TTITLE9=Bill Perry - Lost In The Blues
TTITLE10=Kenny Wayne Shepherd - Aberdeen
TTITLE11=Monster Mike Welsh - Every Time You Lie
TTITLE12=The Hoax - Don't Let Me Cry
TTITLE13=Arc Angels - Sent By Angels
TTITLE14=Zakiya Hooker - Bit By Love (Hard Times)
EXTD=
EXTT0=
EXTT1=
EXTT2=
EXTT3=
EXTT4=
EXTT5=
EXTT6=
EXTT7=
EXTT8=
EXTT9=
EXTT10=
EXTT11=
EXTT12=
EXTT13=
EXTT14=
PLAYORDER=
